<?xml version="1.0" encoding="utf-8"?>
<svg version="1.1" id="svg1" width="500" height="500" viewBox="0 0 500 500" xmlns="http://www.w3.org/2000/svg">
  <defs id="defs1"/>
  <g id="g1">
    <g id="g48" transform="translate(12.70648,-4.4472681)">
      <path style="fill:#b11e23" d="M 277.286 387.972 C 243.01 383.642 216.876 366.823 202.573 339.89 C 194.632 324.935 191.59 308.871 193.155 290.148 C 195.626 260.579 214.166 235.817 241.108 219.557 C 250.86 213.671 247.204 216.275 248.909 224.943 L 250.021 230.596 L 244.951 235.857 C 229.64 251.742 222.15 273.769 223.309 299.5 C 224.409 323.894 232.119 343.202 246.47 357.5 C 255.518 366.514 262.531 371.025 273.011 374.571 C 286.812 379.24 305.36 379.607 317.159 375.444 C 330.148 370.861 341.134 360.477 351.485 343 C 353.602 339.425 355.454 336.343 355.6 336.15 C 356.258 335.285 363 338.295 363 339.454 C 363 341.555 354.344 366.213 350.913 373.886 C 349.178 377.767 347.025 381.164 346.129 381.434 C 328.39 386.795 293.898 390.071 277.286 387.972 Z M 349.508 253.861 C 348.118 247.182 341.973 236.061 336.672 230.632 C 327.601 221.342 316.845 217.202 299.5 216.327 C 293.45 216.022 286.141 216.211 283.258 216.748 L 277.759 217.81 L 275.585 213.374 C 274.248 210.981 272.114 209.338 272.495 209.103 C 274.71 207.734 297.141 205.798 308.023 206.28 C 319.872 206.804 350.358 212.044 352.258 213.883 C 353 214.601 359.249 255.085 358.702 255.631 C 358.55 255.784 356.576 256.204 354.316 256.565 C 350.28 257.211 350.195 257.163 349.508 253.861 Z" id="path50"/>
      <path style="fill:#272a78" d="M 223.67 282.82 C 223.505 282.881 224.489 277.423 225.717 271.674 C 225.956 270.557 231.653 268.213 234.465 266.509 C 240.451 262.881 246.189 255.569 248.385 248.77 C 251.776 238.271 249.562 219.641 243.95 211.446 C 236.661 200.802 220.418 195 197.912 195 L 187 195 L 187 226.057 C 187 261.066 187.445 264.427 192.685 269.028 L 196.888 271.996 L 195.507 277.677 L 194.155 283.058 L 164.841 283 L 136 283 L 136 279.145 L 136 275.29 L 142.866 274.714 C 151.338 274.004 156.285 272.021 158.672 268.378 C 160.39 265.757 160.517 261.499 160.777 197.455 C 160.992 144.287 160.773 128.461 159.777 125.41 C 158.174 120.501 153.839 118.19 144.616 117.329 L 138 116.711 L 138 112.855 L 138 109 L 181.25 109.035 C 228.965 109.073 235.36 109.64 246.41 114.811 C 255.01 118.836 260.35 123.934 264.24 131.836 C 267.263 137.974 268.465 143.587 268.216 148.478 C 268.038 151.963 266.742 159.644 264.206 164.596 C 258.96 174.836 249.897 181.739 236.485 186.164 L 229.5 188.469 L 234 189.315 C 242.273 190.87 255.453 195.141 259.875 197.699 C 266.528 201.549 271.723 206.691 275.541 213.206 C 278.448 218.165 279.096 220.401 279.623 227.3 C 280.728 241.749 276.774 252.45 266.612 262.513 C 259.222 269.831 249.746 274.964 236.925 278.593 C 231.741 280.061 225.921 281.987 223.67 282.82 Z M 215.201 183.877 C 221.916 182.454 227.581 179.649 231.838 175.642 C 244.151 164.05 243.361 137.427 230.365 126.016 C 224.028 120.452 218.73 118.648 207.5 118.23 C 196.032 117.803 190.226 119.271 188.265 123.093 C 187.367 124.842 187.025 133.63 187.015 155.25 L 187 185 L 198.451 185 C 204.749 185 212.286 184.495 215.201 183.877 Z" id="path49"/>
      <path style="fill:#040608" d="M 299.895 376.252 C 298.396 365.975 292.047 321.284 292.326 320.445 C 292.502 319.917 296.484 338.319 298.876 351.032 C 301.268 363.744 303.507 375.001 303.729 376.073 C 304.105 377.886 304.342 378.308 302.205 378.303 C 299.925 378.297 300.289 378.955 299.895 376.252 Z M 262.562 370.199 C 262.337 370.067 264.355 366.936 276.445 346.749 C 290.2 323.782 297.846 312.554 289.27 328 C 287.59 331.025 281.612 342.05 275.987 352.5 C 270.362 362.95 265.805 371.554 265.693 371.686 C 265.581 371.817 263.51 370.753 262.562 370.199 Z M 312.434 351.283 C 305.404 339.852 291.722 320.675 292.007 320.643 C 292.981 320.532 326.091 365.269 328.265 369.521 C 328.555 370.089 326.27 370.992 325.51 371.676 C 325.26 371.901 322.832 368.188 312.434 351.283 Z M 261.623 329.198 C 261.328 328.722 260.652 326.882 260.228 325.166 C 259.922 323.93 260.892 323.615 262.697 323.659 C 263.936 323.689 268.428 324.095 267.587 321.757 C 267.001 320.127 273.439 316.931 309.654 299.052 C 333.162 287.447 353.667 278.351 354.389 277.234 C 355.567 275.412 356.072 274.929 357.462 278.255 C 363.239 292.081 364.709 296.547 363.69 297.184 C 363.088 297.56 362.475 297.268 362.083 297.025 C 361.481 296.653 306.675 316.253 297.5 320.062 C 295.85 320.747 293.973 321.619 293.329 321.755 C 292.685 321.89 288.033 323.566 282.629 325.4 C 271.522 329.171 270.655 329.825 270.109 328.523 C 269.533 327.15 268.587 326.293 265.378 327.951 C 263.413 328.966 261.917 329.675 261.623 329.198 Z" id="path48"/>
    </g>
  </g>
</svg>